# xmcd CD database file
#
# Track frame offsets:
#	150
#	13675
#	27975
#	40510
#	53750
#	64175
#	83683
#	93590
#	104525
#	116490
#	127095
#
# Disc length: 1889 seconds
#
# Revision: 0
# Processed by: cddbd v1.5.1PL0 Copyright (c) Steve Scherf et al.
# Submitted via: CDex 1.51
#
DISCID=8b075f0b
DTITLE=Kenny Rogers And The First Edition - Gold Collection CD 1
DYEAR=1994
DGENRE=Country
TTITLE0=Ruby Don't Take Your Love To Town (US 6/69)
TTITLE1=Sunshine
TTITLE2=Reuben James (US 26/69)
TTITLE3=Shine On Ruby Mountain
TTITLE4=Ticket To Nowhere
TTITLE5=Lay It Down
TTITLE6=New Design
TTITLE7=Always Leaving Always Gone
TTITLE8=What Am I Gonna Do
TTITLE9=She Even Woke Me Up To Say Goodbye
TTITLE10=Heed The Call (US 33/70)
EXTD=YEAR: 1994
EXTT0=
EXTT1=
EXTT2=
EXTT3=
EXTT4=
EXTT5=
EXTT6=
EXTT7=
EXTT8=
EXTT9=
EXTT10=
PLAYORDER=
